<svg width="24" height="24" viewBox="0 0 24 24" fill="none" xmlns="http://www.w3.org/2000/svg">
<path fill-rule="evenodd" clip-rule="evenodd" d="M21.8829 14.0205L16.3829 14.0205L16.3829 2.02051L21.8829 2.02051L21.8829 14.0205ZM20.8829 13.0205L20.8829 3.02051L17.3829 3.02051L17.3829 13.0205L20.8829 13.0205Z" fill="black"/>
<path fill-rule="evenodd" clip-rule="evenodd" d="M7.7826 19.136C7.40499 20.143 8.66558 20.9547 9.42604 20.1942L16.3829 13.2373L16.3829 3.02047L7.17432 3.02047C6.04695 3.02047 5.05905 3.77502 4.76241 4.86267L3.05429 11.1258C2.79405 12.08 3.51238 13.0205 4.50144 13.0205L9.35443 13.0205C9.51842 13.0205 9.67199 13.1009 9.76539 13.2357C9.8588 13.3705 9.88018 13.5425 9.8226 13.696L7.7826 19.136ZM17.0388 13.9957L10.1331 20.9014C8.61224 22.4223 6.09104 20.7988 6.84627 18.7849L8.63293 14.0205L4.50144 14.0205C2.853 14.0205 1.65579 12.453 2.08953 10.8627L3.79765 4.59955C4.21294 3.07684 5.596 2.02047 7.17432 2.02047L16.8829 2.02047C17.1591 2.02047 17.3829 2.24433 17.3829 2.52047L17.3829 13.5205C17.3829 13.7422 17.2386 13.9302 17.0388 13.9957Z" fill="black"/>
</svg>
